<svg width="33" height="33" viewBox="0 0 33 33" fill="none" xmlns="http://www.w3.org/2000/svg">
<g clip-path="url(#clip0_2_98)">
<path d="M10.7247 29.7021C22.9765 29.7021 29.6796 19.5491 29.6796 10.7472C29.6796 10.4617 29.6732 10.17 29.6605 9.88454C30.9645 8.94154 32.0898 7.7735 32.9835 6.43531C31.7691 6.97562 30.4798 7.3285 29.1595 7.48188C30.5496 6.64858 31.5905 5.33951 32.0892 3.79733C30.7814 4.5724 29.3512 5.11914 27.8598 5.41412C26.855 4.34643 25.5264 3.63949 24.0795 3.4026C22.6326 3.16572 21.1479 3.41207 19.8551 4.10359C18.5622 4.7951 17.5332 5.89326 16.927 7.22827C16.3209 8.56328 16.1714 10.0608 16.5017 11.4893C13.8536 11.3564 11.2629 10.6685 8.89771 9.47013C6.5325 8.27178 4.44551 6.58976 2.77205 4.5331C1.92151 5.99953 1.66125 7.73479 2.04415 9.38622C2.42705 11.0376 3.42439 12.4813 4.83347 13.4238C3.77562 13.3902 2.74094 13.1054 1.81492 12.5929V12.6754C1.81397 14.2143 2.34599 15.706 3.32053 16.897C4.29508 18.088 5.65201 18.9048 7.16065 19.2085C6.18072 19.4766 5.15224 19.5157 4.15479 19.3227C4.5805 20.6461 5.40878 21.8037 6.52403 22.6337C7.63928 23.4638 8.98586 23.925 10.3758 23.9529C8.01607 25.8065 5.10108 26.8119 2.10035 26.8072C1.56819 26.8064 1.03656 26.7738 0.508301 26.7095C3.55672 28.6652 7.10285 29.7039 10.7247 29.7021Z" fill="white" fill-opacity="0.5"/>
</g>
<defs>
<clipPath id="clip0_2_98">
<rect width="32.4752" height="32.4752" fill="white" transform="translate(0.508301 0.271606)"/>
</clipPath>
</defs>
</svg>
